<svg width="24" height="25" viewBox="0 0 24 25" fill="none" xmlns="http://www.w3.org/2000/svg">
<path fill-rule="evenodd" clip-rule="evenodd" d="M11.999 20.6021C11.999 20.6021 11.999 6.60205 11.999 6.60205C11.999 6.60205 9.99901 4.60205 7.99901 4.60205C5.99901 4.60205 2.99901 6.60205 2.99901 6.60205C2.99901 6.60205 2.99901 20.6021 2.99901 20.6021C2.99901 20.6021 5.999 18.6021 7.99901 18.6021C9.99901 18.6021 11.999 20.6021 11.999 20.6021Z" stroke="#262626" stroke-width="1.2" stroke-linecap="round" stroke-linejoin="round"/>
<path fill-rule="evenodd" clip-rule="evenodd" d="M11.999 20.6021C11.999 20.6021 11.999 6.60205 11.999 6.60205C11.999 6.60205 13.999 4.60205 15.999 4.60205C17.999 4.60205 20.999 6.60205 20.999 6.60205C20.999 6.60205 20.999 20.6021 20.999 20.6021C20.999 20.6021 17.999 18.6021 15.999 18.6021C13.999 18.6021 11.999 20.6021 11.999 20.6021Z" stroke="#262626" stroke-width="1.2" stroke-linecap="round" stroke-linejoin="round"/>
</svg>
