<svg width="18" height="18" viewBox="0 0 18 18" fill="none" xmlns="http://www.w3.org/2000/svg">
<path fill-rule="evenodd" clip-rule="evenodd" d="M13.717 4.50006H2.03066L3.14364 11.2501H12.604L13.717 4.50006Z" stroke="white" stroke-width="1.2" stroke-linecap="round" stroke-linejoin="round"/>
<path fill-rule="evenodd" clip-rule="evenodd" d="M11.25 15C10.8358 15 10.5 14.6642 10.5 14.25C10.5 13.8358 10.8358 13.5 11.25 13.5C11.6642 13.5 12 13.8358 12 14.25C12 14.6642 11.6642 15 11.25 15Z" stroke="white" stroke-width="1.2"/>
<path fill-rule="evenodd" clip-rule="evenodd" d="M4.5 15C4.08579 15 3.75 14.6642 3.75 14.25C3.75 13.8358 4.08579 13.5 4.5 13.5C4.91421 13.5 5.25 13.8358 5.25 14.25C5.25 14.6642 4.91421 15 4.5 15Z" stroke="white" stroke-width="1.2"/>
<path d="M12.75 4.5H15.75" stroke="white" stroke-width="1.2" stroke-linecap="round"/>
</svg>
