<svg width="24" height="25" viewBox="0 0 24 25" fill="none" xmlns="http://www.w3.org/2000/svg">
<path d="M21.2922 6.60181L20.0264 14.2787C19.9005 15.0419 19.2408 15.6018 18.4673 15.6018H7.53537C6.76189 15.6018 6.1021 15.0419 5.97627 14.2787L4.92861 7.92488C4.80277 7.16171 4.14298 6.60181 3.36951 6.60181H2" stroke="#262626" stroke-width="1.2" stroke-linecap="round" stroke-linejoin="round"/>
<path fill-rule="evenodd" clip-rule="evenodd" d="M8 20.6018C8.55228 20.6018 9 20.1541 9 19.6018C9 19.0495 8.55228 18.6018 8 18.6018C7.44772 18.6018 7 19.0495 7 19.6018C7 20.1541 7.44772 20.6018 8 20.6018Z" stroke="#262626" stroke-width="1.2"/>
<path fill-rule="evenodd" clip-rule="evenodd" d="M18.001 20.6018C18.5533 20.6018 19.001 20.1541 19.001 19.6018C19.001 19.0495 18.5533 18.6018 18.001 18.6018C17.4487 18.6018 17.001 19.0495 17.001 19.6018C17.001 20.1541 17.4487 20.6018 18.001 20.6018Z" stroke="#262626" stroke-width="1.2"/>
<path d="M16 8.60181H10" stroke="#262626" stroke-width="1.2" stroke-linecap="round"/>
<path d="M13 5.60205V11.6021" stroke="#262626" stroke-width="1.2" stroke-linecap="round"/>
</svg>
