<svg width="24" height="25" viewBox="0 0 24 25" fill="none" xmlns="http://www.w3.org/2000/svg">
<path d="M6.25481 7.71896C6.17959 7.74813 6.11086 7.79187 6.05257 7.84766L2.98834 10.9119C2.9312 10.969 2.88587 11.0369 2.85495 11.1115C2.82402 11.1862 2.80811 11.2662 2.80811 11.347C2.80811 11.5102 2.87294 11.6667 2.98834 11.7821C3.04548 11.8393 3.11332 11.8846 3.18797 11.9155C3.26263 11.9465 3.34265 11.9624 3.42346 11.9624C3.58666 11.9624 3.74318 11.8975 3.85858 11.7821L5.87485 9.75974L5.87485 16.7106C5.87485 16.8732 5.93942 17.0291 6.05435 17.144C6.16928 17.2589 6.32516 17.3235 6.4877 17.3235C6.65023 17.3235 6.80611 17.2589 6.92104 17.144C7.03598 17.0291 7.10054 16.8732 7.10054 16.7106L7.10054 9.75974L9.11681 11.7821C9.17378 11.8396 9.24156 11.8852 9.31625 11.9163C9.39093 11.9474 9.47103 11.9634 9.55193 11.9634C9.63284 11.9634 9.71294 11.9474 9.78762 11.9163C9.8623 11.8852 9.93008 11.8396 9.98705 11.7821C10.0445 11.7252 10.0901 11.6574 10.1212 11.5827C10.1523 11.508 10.1683 11.4279 10.1683 11.347C10.1683 11.2661 10.1523 11.186 10.1212 11.1113C10.0901 11.0366 10.0445 10.9689 9.98705 10.9119L6.92282 7.84766C6.86453 7.79187 6.79581 7.74813 6.72058 7.71896C6.57137 7.65767 6.40402 7.65767 6.25481 7.71896Z" fill="#262626"/>
<path d="M17.7452 17.2771C17.8204 17.248 17.8891 17.2042 17.9474 17.1484L21.0117 14.0842C21.0688 14.0271 21.1141 13.9592 21.1451 13.8846C21.176 13.8099 21.1919 13.7299 21.1919 13.6491C21.1919 13.4859 21.1271 13.3294 21.0117 13.214C20.9545 13.1568 20.8867 13.1115 20.812 13.0806C20.7374 13.0496 20.6573 13.0337 20.5765 13.0337C20.4133 13.0337 20.2568 13.0986 20.1414 13.214L18.1252 15.2364L18.1252 8.28545C18.1252 8.12292 18.0606 7.96704 17.9457 7.85211C17.8307 7.73718 17.6748 7.67261 17.5123 7.67261C17.3498 7.67261 17.1939 7.73718 17.079 7.85211C16.964 7.96704 16.8995 8.12292 16.8995 8.28545L16.8995 15.2364L14.8832 13.214C14.8262 13.1565 14.7584 13.1109 14.6838 13.0798C14.6091 13.0487 14.529 13.0327 14.4481 13.0327C14.3672 13.0327 14.2871 13.0487 14.2124 13.0798C14.1377 13.1109 14.0699 13.1565 14.0129 13.214C13.9555 13.2709 13.9099 13.3387 13.8788 13.4134C13.8477 13.4881 13.8317 13.5682 13.8317 13.6491C13.8317 13.73 13.8477 13.8101 13.8788 13.8848C13.9099 13.9594 13.9555 14.0272 14.0129 14.0842L17.0772 17.1484C17.1355 17.2042 17.2042 17.248 17.2794 17.2771C17.4286 17.3384 17.596 17.3384 17.7452 17.2771Z" fill="#262626"/>
</svg>
